<svg width="205" height="258" viewBox="0 0 205 258" fill="none" xmlns="http://www.w3.org/2000/svg">
    <path d="M137.544 63.1818V83.5724H45.9716V253H22.9858V63.1818H137.544Z" fill="white" />
    <path
        d="M132.17 239.8C126.64 234.592 123.308 230.821 118.751 224.746C116.742 222.046 113.659 218.945 111.029 216.898C92.9034 203.177 76.8297 176.922 73.6052 155.543C71.2069 140.103 75.6051 131.51 85.6136 132.055C89.1076 132.218 90.5395 132.753 95.9805 135.837C101.726 139.021 107.801 143.701 109.756 146.368C110.203 147.074 110.402 147.11 110.336 146.38C110.153 144.888 101.726 134.365 96.456 128.973C90.1152 122.577 80.4314 116.37 75.8102 115.773C69.9612 115.025 66.3138 118.216 65.3591 124.785C64.9009 128.038 65.8546 136.039 67.4352 142.183C68.2136 145.333 68.2284 145.429 67.2312 143.35C65.1242 138.78 62.117 127.794 61.4506 121.953C60.6125 115.317 61.2568 109.85 63.2563 106.595C65.1404 103.528 69.7258 102.034 74.208 102.977C83.0807 104.893 97.3775 116.607 107.491 130.234C109.486 132.839 111.643 134.94 113.933 136.346C131.469 147.205 150.513 177.699 153.3 199.672C154.772 211.008 152.876 218.034 147.59 220.908C140.528 224.761 129.943 220.499 118.208 209.152C116.172 207.212 114.341 205.656 114.104 205.683C113.607 205.895 119.587 214.31 124.147 219.784C132.932 230.44 144.435 239.058 150.971 239.883C156.82 240.631 160.467 237.44 161.422 230.871C161.88 227.617 160.912 219.522 159.346 213.473C158.529 210.385 158.514 210.29 159.511 212.368C161.627 216.685 164.649 227.767 165.33 233.703C166.168 240.339 165.524 245.806 163.525 249.061C161.641 252.128 157.055 253.622 152.573 252.679C147.878 251.605 138.17 245.555 132.17 239.8ZM109.436 211.609C109.353 211.386 107.282 207.355 104.779 202.713C93.1994 181.202 89.0905 161.262 94.3969 152.624C96.2811 149.557 98.2395 148.518 102.278 148.154L104.988 147.922L101.523 146.397C97.2745 144.477 92.0498 144.026 89.3962 145.241C86.7426 146.456 84.1279 150.713 83.5515 154.756C82.1061 164.989 88.2118 183.828 97.5386 197.662C102.282 204.628 109.664 213.387 109.436 211.609ZM132.725 209.88C151.121 210.145 144.56 173.18 121.392 146.533C119.214 143.988 116.975 141.664 116.389 141.304C115.803 140.944 117.676 144.94 120.505 150.126C133.522 174.073 138.036 193.83 132.384 203.032C130.884 205.473 130.118 206.123 127.681 206.867L124.746 207.823L127.412 208.857C128.844 209.392 131.222 209.819 132.725 209.88Z"
        fill="white" />
</svg>